<svg width="236" height="95" viewBox="0 0 236 95" fill="none" xmlns="http://www.w3.org/2000/svg">
<rect width="52.7694" height="52.7694" rx="10" fill="#00CD80"/>
<rect x="17" y="17" width="18.6455" height="18.6455" rx="5" fill="white"/>
<rect x="60.7693" width="52.7694" height="52.7694" rx="10" fill="#00CD80"/>
<circle cx="147.923" cy="26.3847" r="26.3847" fill="#00CD80"/>
<path fill-rule="evenodd" clip-rule="evenodd" d="M184.793 26C184.446 26 184.066 26.1606 183.768 26.3382V26.3382C183 26.7962 182.256 27.5129 182.311 28.4054C183.162 42.2524 194.662 53.2193 208.723 53.2193C222.799 53.2193 234.308 42.2303 235.138 28.3636C235.19 27.4942 234.469 26.7938 233.725 26.3412V26.3412C233.432 26.1633 233.054 26 232.712 26H184.793Z" fill="#00CD80"/>
<path d="M33.6608 78.34V82.42H31.0208V72.3H33.6608V76.18H36.1008V78.34H33.6608ZM19.7008 81.76V73.2H22.3008V75.42H25.9208V73.2H28.5208V81.76H19.7008ZM22.3008 77.44V79.68H25.9208V77.44H22.3008ZM33.6608 83.2V90.52H21.6408V83.2H24.2408V84.8H31.0408V83.2H33.6608ZM24.2408 86.84V88.42H31.0408V86.84H24.2408Z" fill="#00CD80"/>
<path d="M95.5608 83.2H92.9208V78.8H89.6008V82.2H80.9208V73.64H89.6008V76.68H92.9208V72.3H95.5608V83.2ZM83.5208 75.7V80.14H87.0208V75.7H83.5208ZM95.5608 84.04V90.74H92.9208V86.12H83.0208V84.04H95.5608Z" fill="#00CD80"/>
<path d="M156.621 90.76H153.981V81.06H150.921C150.661 84.58 148.761 86.74 146.201 86.74C143.461 86.74 141.441 84.2 141.441 80.14C141.441 76.1 143.461 73.58 146.201 73.58C148.681 73.58 150.521 75.62 150.901 78.92H153.981V72.28H156.621V90.76ZM146.201 84.34C147.561 84.34 148.461 82.88 148.461 80.14C148.461 77.4 147.561 75.96 146.201 75.96C144.841 75.96 143.961 77.4 143.961 80.14C143.961 82.88 144.841 84.34 146.201 84.34Z" fill="#00CD80"/>
<path d="M210.52 89.28C206.92 89.28 204.76 87.26 204.76 82.34V74.2H207.72V82.6C207.72 85.7 208.76 86.72 210.52 86.72C212.28 86.72 213.4 85.7 213.4 82.6V74.2H216.24V82.34C216.24 87.26 214.14 89.28 210.52 89.28Z" fill="#00CD80"/>
</svg>
