<svg width="141" height="55" viewBox="0 0 141 55" fill="none" xmlns="http://www.w3.org/2000/svg">
<rect width="31.6426" height="31.6426" rx="5.99639" fill="white"/>
<rect x="10.1943" y="10.1938" width="11.1805" height="11.1805" rx="2.9982" fill="#00CD80"/>
<rect x="36.4397" width="31.6426" height="31.6426" rx="5.99639" fill="white"/>
<circle cx="88.7009" cy="15.8213" r="15.8213" fill="white"/>
<path fill-rule="evenodd" clip-rule="evenodd" d="M110.81 15.5901C110.602 15.5901 110.374 15.6865 110.195 15.7931C109.734 16.0679 109.288 16.4979 109.321 17.0333C109.832 25.3362 116.727 31.9122 125.159 31.9122C133.599 31.9122 140.5 25.323 140.998 17.0082C141.03 16.4866 140.597 16.0664 140.151 15.7949C139.975 15.6881 139.748 15.5901 139.543 15.5901H110.81Z" fill="white"/>
<path d="M21.2081 43.212H19.4575V46.1114H18.0488V39.3004H19.4575V42.0494H21.2081V43.212ZM16.0656 45.6054H10.2394V39.9295H11.6481V41.5981H14.6706V39.9295H16.0656V45.6054ZM14.6706 42.7059H11.6481V44.4702H14.6706V42.7059ZM18.0624 46.6585H19.4575V51.5137H11.5523V46.6585H12.9473V47.9578H18.0624V46.6585ZM18.0624 49.0519H12.9473V50.3786H18.0624V49.0519Z" fill="white"/>
<path d="M56.5169 39.3141V46.6175H55.1082V43.4855H52.537V45.8516H46.8201V40.2304H52.537V42.3367H55.1082V39.3141H56.5169ZM51.1693 41.3519H48.2014V44.7301H51.1693V41.3519ZM48.1878 47.2466H56.5169V51.6915H55.1082V48.3818H48.1878V47.2466Z" fill="white"/>
<path d="M93.0156 39.3004V51.6915H91.5932V45.0583H89.1997C89.0493 47.4518 87.7637 48.9288 86.0814 48.9288C84.2624 48.9288 82.9632 47.2466 82.9632 44.566C82.9632 41.9127 84.2624 40.2168 86.0814 40.2168C87.7363 40.2168 89.0083 41.6528 89.1861 43.9095H91.5932V39.3004H93.0156ZM86.0814 47.6706C87.1756 47.6706 87.8731 46.5491 87.8731 44.566C87.8731 42.6375 87.1756 41.4887 86.0814 41.4887C85.0283 41.4887 84.3035 42.6375 84.3035 44.566C84.3035 46.5491 85.0283 47.6706 86.0814 47.6706Z" fill="white"/>
<path d="M124.691 50.7889C122.462 50.7889 120.944 49.5717 120.944 46.2892V40.545H122.53V46.3986C122.53 48.669 123.446 49.4075 124.691 49.4075C125.963 49.4075 126.893 48.669 126.893 46.3986V40.545H128.425V46.2892C128.425 49.5717 126.934 50.7889 124.691 50.7889Z" fill="white"/>
</svg>
